<?xml version="1.0" standalone="no"?>
<!DOCTYPE svg PUBLIC "-//W3C//DTD SVG 20010904//EN"
 "http://www.w3.org/TR/2001/REC-SVG-20010904/DTD/svg10.dtd">
<svg version="1.0" xmlns="http://www.w3.org/2000/svg"
 width="260.000000pt" height="260.000000pt" viewBox="0 0 260.000000 260.000000"
 preserveAspectRatio="xMidYMid meet">
<metadata>
Created by potrace 1.11, written by Peter Selinger 2001-2013
</metadata>
<g transform="translate(0.000000,260.000000) scale(0.100000,-0.100000)"
fill="#000000" stroke="none">
<path d="M145 2593 c-34 -9 -86 -50 -113 -90 l-27 -38 0 -1165 0 -1165 27 -38
c14 -22 43 -51 65 -65 l38 -27 1165 0 1165 0 38 27 c22 14 51 43 65 65 l27 38
0 1165 0 1165 -27 38 c-14 22 -43 51 -65 65 l-38 27 -1150 1 c-632 1 -1159 0
-1170 -3z m1350 -558 c86 -23 210 -87 282 -145 56 -46 153 -152 153 -168 0 -4
-156 -70 -346 -146 -311 -125 -348 -142 -372 -174 -21 -28 -27 -46 -27 -88 0
-56 18 -90 68 -128 55 -41 94 -31 456 117 184 75 336 135 338 133 2 -2 6 -41
10 -87 32 -468 -381 -860 -846 -802 -352 45 -619 312 -664 664 -49 394 229
768 624 838 73 13 250 5 324 -14z"/>
</g>
</svg>
